<svg width="114" height="36" viewBox="0 0 114 36" fill="none" xmlns="http://www.w3.org/2000/svg">
<path d="M25.1778 30.4H13.3882L11.6397 35.75H0L12.9386 0.350002H25.7273L38.616 35.75H26.9263L25.1778 30.4ZM22.4802 22.05L19.283 12.2L16.0858 22.05H22.4802ZM30.1454 18C30.1454 14.5 30.8448 11.3833 32.2436 8.65C33.6756 5.91668 35.707 3.8 38.3382 2.3C40.9691 0.766667 44.0664 0 47.63 0C50.6938 0 53.4249 0.583334 55.8228 1.75C58.2539 2.88333 60.2189 4.5 61.7176 6.6C63.2495 8.7 64.2653 11.15 64.7649 13.95H53.0752C52.5422 12.7833 51.7763 11.8833 50.7772 11.25C49.8113 10.5833 48.6956 10.25 47.4302 10.25C45.5651 10.25 44.0831 10.95 42.9841 12.35C41.9183 13.75 41.3855 15.6333 41.3855 18C41.3855 20.3667 41.9183 22.25 42.9841 23.65C44.0831 25.05 45.5651 25.75 47.4302 25.75C48.6956 25.75 49.8113 25.4333 50.7772 24.8C51.7763 24.1333 52.5422 23.2167 53.0752 22.05H64.7649C64.2653 24.85 63.2495 27.3 61.7176 29.4C60.2189 31.5 58.2539 33.1332 55.8228 34.3C53.4249 35.4333 50.6938 36 47.63 36C44.0664 36 40.9691 35.25 38.3382 33.75C35.707 32.2168 33.6756 30.0833 32.2436 27.35C30.8448 24.6167 30.1454 21.5 30.1454 18ZM69.8567 27.35H80.5472V35.75H58.7664V0.350002H69.8567V27.35ZM94.7777 0.350002C98.4744 0.350002 101.705 1.1 104.469 2.6C107.267 4.1 109.415 6.18333 110.913 8.85C112.412 11.5167 113.161 14.55 113.161 17.95C113.161 21.3167 112.412 24.35 110.913 27.05C109.415 29.75 107.267 31.8833 104.469 33.45C101.705 34.9832 98.4744 35.75 94.7777 35.75H80.0407V0.350002H94.7777ZM93.7786 25.85C96.2764 25.85 98.2581 25.1668 99.7233 23.8C101.189 22.4333 101.921 20.4833 101.921 17.95C101.921 15.4167 101.189 13.4667 99.7233 12.1C98.2581 10.7333 96.2764 10.05 93.7786 10.05H91.1309V25.85H93.7786Z" fill="#3B82F6"/>
</svg>
